<?xml version="1.0" encoding="UTF-8" standalone="no"?>
<svg
   version="1.1"
   viewBox="0 0 46690.594 46690.594"
   id="svg4"
   sodipodi:docname="Icons_ML600-Custom-Methods.svg"
   inkscape:version="1.4.3 (0d15f75, 2025-12-25)"
   width="46690.594"
   height="46690.594"
   xmlns:inkscape="http://www.inkscape.org/namespaces/inkscape"
   xmlns:sodipodi="http://sodipodi.sourceforge.net/DTD/sodipodi-0.dtd"
   xmlns="http://www.w3.org/2000/svg"
   xmlns:svg="http://www.w3.org/2000/svg">
  <sodipodi:namedview
     id="namedview4"
     pagecolor="#ffffff"
     bordercolor="#000000"
     borderopacity="0.25"
     inkscape:showpageshadow="2"
     inkscape:pageopacity="0.0"
     inkscape:pagecheckerboard="0"
     inkscape:deskcolor="#d1d1d1"
     inkscape:zoom="2.5305257"
     inkscape:cx="153.723"
     inkscape:cy="40.505418"
     inkscape:window-width="1920"
     inkscape:window-height="991"
     inkscape:window-x="-9"
     inkscape:window-y="-9"
     inkscape:window-maximized="1"
     inkscape:current-layer="svg4">
    <inkscape:page
       x="0"
       y="0"
       width="46690.594"
       height="46690.594"
       id="page2"
       margin="0"
       bleed="0" />
  </sodipodi:namedview>
  <defs
     id="defs1">
    <style
       id="style1">
      .cls-1 {
        fill: #1c2d57;
      }
    </style>
  </defs>
  <path
     d="m 94.676048,42.102128 -11.29101,0.173829 -11.28907,0.173828 -0.16601,28.92383 c -0.0912,15.90821 -0.0264,29.287105 0.14453,29.732425 0.23851,0.62206 2.85564,0.77038 11.29101,0.63672 l 10.97852,-0.17383 0.16602,-29.734385 z m -22.29297,0.611329 h 21.87891 v 58.552733 h -21.87891 z"
     style="fill:#1c2d57;stroke-width:11.491"
     id="path67" />
  <path
     d="m 10.752219,24.967363 v 19.070312 19.070311 h 11.441409 11.44336 V 44.037675 24.967363 h -11.44336 z m 0.29883,0.02539 h 11.238279 11.23828 v 18.88086 18.875003 H 22.289328 11.051049 V 43.873613 Z"
     style="fill:#1c2d57;stroke-width:11.491"
     id="path63" />
  <path
     d="M -84.989959,0.08845609 V 216.24862 H 131.17019 V 0.08845609 Z M -0.05442008,13.524003 H 22.511988 45.078388 V 43.33455 73.147045 l -2.38281,-0.55468 c -1.31112,-0.30447 -2.5991,-0.56001 -2.86133,-0.56836 -0.26222,-0.008 -0.47656,12.51764 -0.47656,27.83593 v 27.851575 l -4.45312,21.57422 c -8.16536,39.54927 -11.91842,56.02436 -12.05469,52.91796 h -0.002 c -0.0113,-0.24237 -4.02313,-17.08651 -8.917969,-37.42968 L 5.02952,127.78768 V 93.871655 59.953696 l -1.748,-0.38282 c -0.9615,-0.21068 -3.33203008,-0.72656 -3.33203008,-0.72656 -0.005,-15.106705 -0.004,-30.213608 -0.004,-45.320313 z M -61.081761,30.0533 h 23.20312 23.20313 l 0.0469,22.5625 -4.16992,-1.029297 c 0,0 -0.32812,12.959713 -0.32812,26.976562 v 27.044925 l -7.6543,37.07422 c -4.21033,20.39148 -7.8066,37.57761 -7.99023,38.18945 -1.05618,3.51958 -2.31354,-0.69471 -10.91797,-36.55273 l -9.03907,-37.66602 -0.29296,-65.917969 -6.05664,-2.339844 -0.004,-4.210937 z m 121.417969,0 h 23.20117 23.203122 v 13.34961 l -0.006,13.523436 -5.07812,-2.01758 v 26.302739 26.300785 l -7.947272,38.4668 c -4.37039,21.15672 -7.94531,38.6271 -7.94531,38.82421 0,0.71909 -1.95507,0.33608 -2.22265,-0.43554 -0.15154,-0.43703 -4.2921,-17.58069 -9.19922,-38.09571 l -8.92188,-37.29882 V 75.926345 42.877519 l -2.54297,-0.427734 -2.54101,-0.429688 v -5.984375 z"
     style="fill:#1c2d57;stroke-width:11.491"
     id="path61" />
  <path
     d="m 72.383078,42.713457 v 58.552733 h 21.87891 V 42.713457 Z"
     style="fill:#1c2d57;stroke-width:1.60864"
     id="path70" />
  <path
     d="m 11.051049,24.992753 v 18.88086 18.875003 h 11.238279 11.23828 V 43.873613 24.992753 h -11.23828 z"
     style="fill:#1c2d57;stroke-width:1.60864"
     id="path64" />
  <path
     style="fill:#ffffff;fill-opacity:1;stroke-width:4.54095"
     d="m 21.939538,197.2811 c -0.60077,-2.49948 -4.63324,-19.29172 -8.961041,-37.31609 L 5.109771,127.19342 V 93.484372 59.775321 L 4.02304,59.530577 C 3.425338,59.395969 2.269452,59.118983 1.454404,58.915053 L -0.02750208,58.544276 V 36.034544 13.524812 H 22.497458 45.022428 v 29.680951 29.680952 l -0.98821,-0.248027 c -0.54352,-0.136411 -1.75956,-0.353749 -2.70233,-0.482971 l -1.71411,-0.234943 -0.26028,6.86172 c -0.14315,3.773947 -0.26082,16.411057 -0.26149,28.082466 l -10e-4,21.22074 -4.96102,23.82919 c -5.15113,24.74236 -9.60645,45.06235 -10.55342,48.13243 l -0.54851,1.77829 z M 33.862498,44.052066 33.759948,24.787294 22.201078,24.682531 10.642217,24.577768 v 19.369535 19.369535 h 11.661421 11.66141 z"
     id="path72" />
  <path
     style="fill:#ffffff;fill-opacity:1;stroke-width:4.54095"
     d="m 84.274378,184.72362 c -0.58268,-0.37017 -0.77623,-1.1401 -10.58341,-42.10144 l -8.11945,-33.91223 V 75.765477 c 0,-31.035394 -0.0401,-32.956158 -0.69156,-33.146178 -0.38035,-0.110939 -1.53624,-0.320942 -2.56863,-0.466674 l -1.87708,-0.264966 v -5.882753 -5.882752 h 23.11772 23.117732 v 13.280635 c 0,10.466708 -0.10466,13.238663 -0.49397,13.082543 -0.27168,-0.108951 -1.42757,-0.569954 -2.56864,-1.02445 l -2.07466,-0.826357 v 26.218239 26.218246 l -7.314922,35.52205 c -4.02321,19.53713 -7.62424,37.01958 -8.00229,38.84988 -0.67654,3.27537 -1.02419,3.86302 -1.94084,3.28068 z m 10.02999,-83.22336 c 0.10918,-0.10918 0.29569,-13.546497 0.41445,-29.860693 l 0.21594,-29.662169 -7.07451,0.0018 c -3.89097,9.89e-4 -9.07507,0.117073 -11.52022,0.257966 l -4.44571,0.256168 V 72.044818 101.5963 l 1.08673,0.19449 c 1.37236,0.24561 21.05535,-0.0226 21.32332,-0.29053 z"
     id="path73" />
</svg>
